<mxfile host="app.diagrams.net" modified="2021-03-03T08:39:02.322Z" agent="5.0 (Windows)" etag="2aY7LETbj2RgufydgemV" version="14.4.3" type="github">
  <diagram id="xsWnLA2NbZK4KlJk-8-H" name="Page-1">
    <mxGraphModel dx="-38" dy="773" grid="1" gridSize="10" guides="1" tooltips="1" connect="1" arrows="1" fold="1" page="1" pageScale="1" pageWidth="850" pageHeight="1100" math="0" shadow="0">
      <root>
        <mxCell id="0" />
        <mxCell id="1" parent="0" />
        <mxCell id="S9mcAk_hW2MHrrXe7dgP-1" value="&lt;p style=&quot;margin: 0px ; margin-top: 4px ; text-align: center&quot;&gt;&lt;b&gt;Schematic&lt;/b&gt;&lt;/p&gt;&lt;hr size=&quot;1&quot;&gt;&lt;p style=&quot;margin: 0px ; margin-left: 4px&quot;&gt;+ COMPONENT_TYPES: dict&lt;br&gt;&lt;/p&gt;&lt;p style=&quot;margin: 0px ; margin-left: 4px&quot;&gt;+ MAX_ITER: int&lt;br&gt;&lt;/p&gt;&lt;p style=&quot;margin: 0px ; margin-left: 4px&quot;&gt;+ components: [Component]&lt;/p&gt;&lt;p style=&quot;margin: 0px ; margin-left: 4px&quot;&gt;+ comments: [Comment]&lt;/p&gt;&lt;p style=&quot;margin: 0px ; margin-left: 4px&quot;&gt;+ paths: [[int]]&lt;/p&gt;&lt;p style=&quot;margin: 0px ; margin-left: 4px&quot;&gt;+ iteration_num: int&lt;/p&gt;&lt;p style=&quot;margin: 0px ; margin-left: 4px&quot;&gt;+ last_run_score: float&lt;/p&gt;&lt;p style=&quot;margin: 0px ; margin-left: 4px&quot;&gt;+ this_run_score: float&lt;/p&gt;&lt;p style=&quot;margin: 0px ; margin-left: 4px&quot;&gt;+ n_grid_spaces: int&lt;br&gt;&lt;/p&gt;&lt;hr size=&quot;1&quot;&gt;&lt;p style=&quot;margin: 0px ; margin-left: 4px&quot;&gt;+ __init__()&lt;br&gt;&lt;/p&gt;&lt;p style=&quot;margin: 0px ; margin-left: 4px&quot;&gt;+ Schematic(schematic_dict)&lt;br&gt;&lt;/p&gt;&lt;p style=&quot;margin: 0px ; margin-left: 4px&quot;&gt;+ find_component(id): Component&lt;/p&gt;&lt;p style=&quot;margin: 0px ; margin-left: 4px&quot;&gt;+ add_component(schematic, component_type, label, id, schem_position,&lt;br&gt;&lt;/p&gt;&lt;p style=&quot;margin: 0px ; margin-left: 4px&quot;&gt;&amp;nbsp;&amp;nbsp;&amp;nbsp;&amp;nbsp;&amp;nbsp;&amp;nbsp;&amp;nbsp;&amp;nbsp;&amp;nbsp;&amp;nbsp;&amp;nbsp;&amp;nbsp;&amp;nbsp;&amp;nbsp;&amp;nbsp;&amp;nbsp;&amp;nbsp;&amp;nbsp;&amp;nbsp;&amp;nbsp;&amp;nbsp;&amp;nbsp;&amp;nbsp;&amp;nbsp;&amp;nbsp;&amp;nbsp;&amp;nbsp;&amp;nbsp;&amp;nbsp;&amp;nbsp;&amp;nbsp;&amp;nbsp;&amp;nbsp;&amp;nbsp; schem_orientation, pcb_position, pcb_orientation,&lt;/p&gt;&lt;p style=&quot;margin: 0px ; margin-left: 4px&quot;&gt;&amp;nbsp;&amp;nbsp;&amp;nbsp;&amp;nbsp;&amp;nbsp;&amp;nbsp;&amp;nbsp;&amp;nbsp;&amp;nbsp;&amp;nbsp;&amp;nbsp;&amp;nbsp;&amp;nbsp;&amp;nbsp;&amp;nbsp;&amp;nbsp;&amp;nbsp;&amp;nbsp;&amp;nbsp;&amp;nbsp;&amp;nbsp;&amp;nbsp;&amp;nbsp;&amp;nbsp;&amp;nbsp;&amp;nbsp;&amp;nbsp;&amp;nbsp;&amp;nbsp;&amp;nbsp;&amp;nbsp;&amp;nbsp;&amp;nbsp;&amp;nbsp; connections): void&lt;/p&gt;&lt;p style=&quot;margin: 0px ; margin-left: 4px&quot;&gt;+ delete_component(component): void&lt;/p&gt;&lt;p style=&quot;margin: 0px ; margin-left: 4px&quot;&gt;+ add_connection(component_1_pin_id, component_2_pin_id): void&lt;/p&gt;&lt;p style=&quot;margin: 0px ; margin-left: 4px&quot;&gt;+ remove_connection(component_1_pin_id, component_2_pin_id): void&lt;/p&gt;&lt;p style=&quot;margin: 0px ; margin-left: 4px&quot;&gt;+ change_label(component_id, text): void&lt;/p&gt;&lt;p style=&quot;margin: 0px ; margin-left: 4px&quot;&gt;+ add_comment(schematic, id, text, position): void&lt;/p&gt;&lt;p style=&quot;margin: 0px ; margin-left: 4px&quot;&gt;+ remove_comment(id): void&lt;/p&gt;&lt;p style=&quot;margin: 0px ; margin-left: 4px&quot;&gt;+ draw(): void&lt;/p&gt;&lt;p style=&quot;margin: 0px ; margin-left: 4px&quot;&gt;+ to_dict(): dict&lt;br&gt;&lt;/p&gt;&lt;p style=&quot;margin: 0px ; margin-left: 4px&quot;&gt;+ save(file_name): void&lt;/p&gt;&lt;p style=&quot;margin: 0px ; margin-left: 4px&quot;&gt;+ load(file_name): void&lt;/p&gt;&lt;p style=&quot;margin: 0px ; margin-left: 4px&quot;&gt;+ monte_carlo(): void&lt;/p&gt;&lt;p style=&quot;margin: 0px ; margin-left: 4px&quot;&gt;+ initialize_connections_array(): [int][int]&lt;br&gt;&lt;/p&gt;&lt;p style=&quot;margin: 0px ; margin-left: 4px&quot;&gt;+ calculate_score(): float&lt;br&gt;&lt;/p&gt;&lt;p style=&quot;margin: 0px ; margin-left: 4px&quot;&gt;+ a_star(): void&lt;/p&gt;" style="verticalAlign=top;align=left;overflow=fill;fontSize=12;fontFamily=Helvetica;html=1;" vertex="1" parent="1">
          <mxGeometry x="1880" y="237.03" width="425" height="465.94" as="geometry" />
        </mxCell>
        <mxCell id="S9mcAk_hW2MHrrXe7dgP-2" value="&lt;p style=&quot;margin: 0px ; margin-top: 4px ; text-align: center&quot;&gt;&lt;b&gt;Component&lt;/b&gt;&lt;/p&gt;&lt;hr size=&quot;1&quot;&gt;&lt;p style=&quot;margin: 0px ; margin-left: 4px&quot;&gt;+ schematic: Schematic&lt;br&gt;&lt;/p&gt;&lt;p style=&quot;margin: 0px ; margin-left: 4px&quot;&gt;+ label: str&lt;/p&gt;&lt;p style=&quot;margin: 0px ; margin-left: 4px&quot;&gt;+ id: int&lt;/p&gt;&lt;p style=&quot;margin: 0px ; margin-left: 4px&quot;&gt;+ schem_position: [int]&lt;/p&gt;&lt;p style=&quot;margin: 0px ; margin-left: 4px&quot;&gt;+ schem_orientation: [int][int]&lt;/p&gt;&lt;p style=&quot;margin: 0px ; margin-left: 4px&quot;&gt;+ pcb_position: [int]&lt;/p&gt;&lt;p style=&quot;margin: 0px ; margin-left: 4px&quot;&gt;+ pcb_orientation: [int][int]&lt;/p&gt;&lt;p style=&quot;margin: 0px ; margin-left: 4px&quot;&gt;+ connections: [[str]]&lt;/p&gt;&lt;hr size=&quot;1&quot;&gt;&lt;p style=&quot;margin: 0px ; margin-left: 4px&quot;&gt;+ __init__(schematic, label, id, schem_position,&lt;/p&gt;&lt;p style=&quot;margin: 0px ; margin-left: 4px&quot;&gt;&amp;nbsp;&amp;nbsp;&amp;nbsp;&amp;nbsp;&amp;nbsp;&amp;nbsp;&amp;nbsp;&amp;nbsp;&amp;nbsp;&amp;nbsp;&amp;nbsp;&amp;nbsp;&amp;nbsp;&amp;nbsp;&amp;nbsp;&amp;nbsp;&amp;nbsp;&amp;nbsp; schem_orientation, pcb_position,&lt;/p&gt;&lt;p style=&quot;margin: 0px ; margin-left: 4px&quot;&gt;&amp;nbsp;&amp;nbsp;&amp;nbsp;&amp;nbsp;&amp;nbsp;&amp;nbsp;&amp;nbsp;&amp;nbsp;&amp;nbsp;&amp;nbsp;&amp;nbsp;&amp;nbsp;&amp;nbsp;&amp;nbsp;&amp;nbsp;&amp;nbsp;&amp;nbsp;&amp;nbsp; pcb_orientation, connections)&lt;br&gt;&lt;/p&gt;&lt;p style=&quot;margin: 0px ; margin-left: 4px&quot;&gt;+ connect(this_pin_number, that_pin_id): void&lt;/p&gt;&lt;p style=&quot;margin: 0px ; margin-left: 4px&quot;&gt;+ disconnect(this_pin_number, that_pin_id): void&lt;/p&gt;&lt;p style=&quot;margin: 0px ; margin-left: 4px&quot;&gt;+ abstract change_label(text): void&lt;/p&gt;&lt;p style=&quot;margin: 0px ; margin-left: 4px&quot;&gt;+ abstract draw(): void&lt;/p&gt;&lt;p style=&quot;margin: 0px ; margin-left: 4px&quot;&gt;+ to_dict(): dict&lt;br&gt;&lt;/p&gt;" style="verticalAlign=top;align=left;overflow=fill;fontSize=12;fontFamily=Helvetica;html=1;" vertex="1" parent="1">
          <mxGeometry x="2590" y="330" width="280" height="280" as="geometry" />
        </mxCell>
        <mxCell id="S9mcAk_hW2MHrrXe7dgP-3" value="&lt;p style=&quot;margin: 0px ; margin-top: 4px ; text-align: center&quot;&gt;&lt;b&gt;Comment&lt;/b&gt;&lt;/p&gt;&lt;hr size=&quot;1&quot;&gt;&lt;p style=&quot;margin: 0px ; margin-left: 4px&quot;&gt;+ schematic: Schematic&lt;/p&gt;&lt;p style=&quot;margin: 0px ; margin-left: 4px&quot;&gt;+ text: str&lt;/p&gt;&lt;p style=&quot;margin: 0px ; margin-left: 4px&quot;&gt;+ location: [int]&lt;/p&gt;&lt;hr size=&quot;1&quot;&gt;&lt;p style=&quot;margin: 0px ; margin-left: 4px&quot;&gt;+ __init__(schematic, id, text, position)&lt;br&gt;&lt;/p&gt;&lt;p style=&quot;margin: 0px ; margin-left: 4px&quot;&gt;+ edit_text(text): void&lt;/p&gt;&lt;p style=&quot;margin: 0px ; margin-left: 4px&quot;&gt;+ set_position(position): void&lt;/p&gt;&lt;p style=&quot;margin: 0px ; margin-left: 4px&quot;&gt;+ to_dict(): dict&lt;br&gt;&lt;/p&gt;&lt;p style=&quot;margin: 0px ; margin-left: 4px&quot;&gt;+ draw(): void&lt;/p&gt;" style="verticalAlign=top;align=left;overflow=fill;fontSize=12;fontFamily=Helvetica;html=1;" vertex="1" parent="1">
          <mxGeometry x="1981.25" y="750" width="222.5" height="150" as="geometry" />
        </mxCell>
        <mxCell id="S9mcAk_hW2MHrrXe7dgP-4" value="&lt;p style=&quot;margin: 0px ; margin-top: 4px ; text-align: center&quot;&gt;&lt;b&gt;Capacitor&lt;/b&gt;&lt;/p&gt;&lt;hr size=&quot;1&quot;&gt;&lt;p style=&quot;margin: 0px ; margin-left: 4px&quot;&gt;+ change_label(text): void&lt;/p&gt;&lt;p style=&quot;margin: 0px ; margin-left: 4px&quot;&gt;+ draw(): void&lt;/p&gt;" style="verticalAlign=top;align=left;overflow=fill;fontSize=12;fontFamily=Helvetica;html=1;" vertex="1" parent="1">
          <mxGeometry x="2650" y="190" width="160" height="90" as="geometry" />
        </mxCell>
        <mxCell id="S9mcAk_hW2MHrrXe7dgP-5" value="&lt;p style=&quot;margin: 0px ; margin-top: 4px ; text-align: center&quot;&gt;&lt;b&gt;Resistor&lt;/b&gt;&lt;/p&gt;&lt;hr size=&quot;1&quot;&gt;&lt;p style=&quot;margin: 0px ; margin-left: 4px&quot;&gt;+ change_label(text): void&lt;/p&gt;&lt;p style=&quot;margin: 0px ; margin-left: 4px&quot;&gt;+ draw(): void&lt;/p&gt;" style="verticalAlign=top;align=left;overflow=fill;fontSize=12;fontFamily=Helvetica;html=1;" vertex="1" parent="1">
          <mxGeometry x="2330" y="190" width="160" height="90" as="geometry" />
        </mxCell>
        <mxCell id="S9mcAk_hW2MHrrXe7dgP-6" value="&lt;p style=&quot;margin: 0px ; margin-top: 4px ; text-align: center&quot;&gt;&lt;b&gt;Inductor&lt;/b&gt;&lt;/p&gt;&lt;hr size=&quot;1&quot;&gt;&lt;p style=&quot;margin: 0px ; margin-left: 4px&quot;&gt;+ change_label(text): void&lt;/p&gt;&lt;p style=&quot;margin: 0px ; margin-left: 4px&quot;&gt;+ draw(): void&lt;/p&gt;" style="verticalAlign=top;align=left;overflow=fill;fontSize=12;fontFamily=Helvetica;html=1;" vertex="1" parent="1">
          <mxGeometry x="2970" y="190" width="160" height="90" as="geometry" />
        </mxCell>
        <mxCell id="S9mcAk_hW2MHrrXe7dgP-7" value="&lt;p style=&quot;margin: 0px ; margin-top: 4px ; text-align: center&quot;&gt;&lt;b&gt;NpnTransistor&lt;/b&gt;&lt;/p&gt;&lt;hr size=&quot;1&quot;&gt;&lt;p style=&quot;margin: 0px ; margin-left: 4px&quot;&gt;+ change_label(text): void&lt;/p&gt;&lt;p style=&quot;margin: 0px ; margin-left: 4px&quot;&gt;+ draw(): void&lt;/p&gt;" style="verticalAlign=top;align=left;overflow=fill;fontSize=12;fontFamily=Helvetica;html=1;" vertex="1" parent="1">
          <mxGeometry x="2330" y="350" width="160" height="90" as="geometry" />
        </mxCell>
        <mxCell id="S9mcAk_hW2MHrrXe7dgP-8" value="&lt;p style=&quot;margin: 0px ; margin-top: 4px ; text-align: center&quot;&gt;&lt;b&gt;PnpTransistor&lt;/b&gt;&lt;/p&gt;&lt;hr size=&quot;1&quot;&gt;&lt;p style=&quot;margin: 0px ; margin-left: 4px&quot;&gt;+ change_label(text): void&lt;/p&gt;&lt;p style=&quot;margin: 0px ; margin-left: 4px&quot;&gt;+ draw(): void&lt;/p&gt;" style="verticalAlign=top;align=left;overflow=fill;fontSize=12;fontFamily=Helvetica;html=1;" vertex="1" parent="1">
          <mxGeometry x="2330" y="510" width="160" height="90" as="geometry" />
        </mxCell>
        <mxCell id="S9mcAk_hW2MHrrXe7dgP-9" value="&lt;p style=&quot;margin: 0px ; margin-top: 4px ; text-align: center&quot;&gt;&lt;b&gt;Switch&lt;/b&gt;&lt;/p&gt;&lt;hr size=&quot;1&quot;&gt;&lt;p style=&quot;margin: 0px ; margin-left: 4px&quot;&gt;+ change_label(text): void&lt;/p&gt;&lt;p style=&quot;margin: 0px ; margin-left: 4px&quot;&gt;+ draw(): void&lt;/p&gt;" style="verticalAlign=top;align=left;overflow=fill;fontSize=12;fontFamily=Helvetica;html=1;" vertex="1" parent="1">
          <mxGeometry x="2970" y="350" width="160" height="90" as="geometry" />
        </mxCell>
        <mxCell id="S9mcAk_hW2MHrrXe7dgP-10" value="&lt;p style=&quot;margin: 0px ; margin-top: 4px ; text-align: center&quot;&gt;&lt;b&gt;Diode&lt;/b&gt;&lt;/p&gt;&lt;hr size=&quot;1&quot;&gt;&lt;p style=&quot;margin: 0px ; margin-left: 4px&quot;&gt;+ change_label(text): void&lt;/p&gt;&lt;p style=&quot;margin: 0px ; margin-left: 4px&quot;&gt;+ draw(): void&lt;/p&gt;" style="verticalAlign=top;align=left;overflow=fill;fontSize=12;fontFamily=Helvetica;html=1;" vertex="1" parent="1">
          <mxGeometry x="2330" y="660" width="160" height="90" as="geometry" />
        </mxCell>
        <mxCell id="S9mcAk_hW2MHrrXe7dgP-11" value="&lt;p style=&quot;margin: 0px ; margin-top: 4px ; text-align: center&quot;&gt;&lt;b&gt;VoltageSource&lt;/b&gt;&lt;/p&gt;&lt;hr size=&quot;1&quot;&gt;&lt;p style=&quot;margin: 0px ; margin-left: 4px&quot;&gt;+ change_label(text): void&lt;/p&gt;&lt;p style=&quot;margin: 0px ; margin-left: 4px&quot;&gt;+ draw(): void&lt;/p&gt;" style="verticalAlign=top;align=left;overflow=fill;fontSize=12;fontFamily=Helvetica;html=1;" vertex="1" parent="1">
          <mxGeometry x="2970" y="660" width="160" height="90" as="geometry" />
        </mxCell>
        <mxCell id="S9mcAk_hW2MHrrXe7dgP-12" value="&lt;p style=&quot;margin: 0px ; margin-top: 4px ; text-align: center&quot;&gt;&lt;b&gt;Ground&lt;/b&gt;&lt;/p&gt;&lt;hr size=&quot;1&quot;&gt;&lt;p style=&quot;margin: 0px ; margin-left: 4px&quot;&gt;+ change_label(text): void&lt;/p&gt;&lt;p style=&quot;margin: 0px ; margin-left: 4px&quot;&gt;+ draw(): void&lt;/p&gt;" style="verticalAlign=top;align=left;overflow=fill;fontSize=12;fontFamily=Helvetica;html=1;" vertex="1" parent="1">
          <mxGeometry x="2970" y="510" width="160" height="90" as="geometry" />
        </mxCell>
        <mxCell id="S9mcAk_hW2MHrrXe7dgP-13" value="&lt;p style=&quot;margin: 0px ; margin-top: 4px ; text-align: center&quot;&gt;&lt;b&gt;LED&lt;/b&gt;&lt;/p&gt;&lt;hr size=&quot;1&quot;&gt;&lt;p style=&quot;margin: 0px ; margin-left: 4px&quot;&gt;+ add_label(text): void&lt;/p&gt;&lt;p style=&quot;margin: 0px ; margin-left: 4px&quot;&gt;+ draw(): void&lt;/p&gt;" style="verticalAlign=top;align=left;overflow=fill;fontSize=12;fontFamily=Helvetica;html=1;" vertex="1" parent="1">
          <mxGeometry x="2650" y="660" width="160" height="90" as="geometry" />
        </mxCell>
        <mxCell id="S9mcAk_hW2MHrrXe7dgP-14" style="edgeStyle=orthogonalEdgeStyle;rounded=0;orthogonalLoop=1;jettySize=auto;html=1;exitX=0.5;exitY=1;exitDx=0;exitDy=0;" edge="1" parent="1" source="S9mcAk_hW2MHrrXe7dgP-8" target="S9mcAk_hW2MHrrXe7dgP-8">
          <mxGeometry relative="1" as="geometry" />
        </mxCell>
        <mxCell id="S9mcAk_hW2MHrrXe7dgP-15" value="" style="endArrow=block;endSize=16;endFill=0;html=1;exitX=0.5;exitY=1;exitDx=0;exitDy=0;" edge="1" parent="1" source="S9mcAk_hW2MHrrXe7dgP-4" target="S9mcAk_hW2MHrrXe7dgP-2">
          <mxGeometry width="160" relative="1" as="geometry">
            <mxPoint x="2920" y="370" as="sourcePoint" />
            <mxPoint x="3080" y="370" as="targetPoint" />
          </mxGeometry>
        </mxCell>
        <mxCell id="S9mcAk_hW2MHrrXe7dgP-16" value="" style="endArrow=block;endSize=16;endFill=0;html=1;exitX=0;exitY=1;exitDx=0;exitDy=0;entryX=1;entryY=0;entryDx=0;entryDy=0;" edge="1" parent="1" source="S9mcAk_hW2MHrrXe7dgP-6" target="S9mcAk_hW2MHrrXe7dgP-2">
          <mxGeometry width="160" relative="1" as="geometry">
            <mxPoint x="2820" y="300" as="sourcePoint" />
            <mxPoint x="2980" y="300" as="targetPoint" />
          </mxGeometry>
        </mxCell>
        <mxCell id="S9mcAk_hW2MHrrXe7dgP-17" value="" style="endArrow=block;endSize=16;endFill=0;html=1;exitX=0;exitY=0.5;exitDx=0;exitDy=0;entryX=1;entryY=0.25;entryDx=0;entryDy=0;" edge="1" parent="1" source="S9mcAk_hW2MHrrXe7dgP-9" target="S9mcAk_hW2MHrrXe7dgP-2">
          <mxGeometry width="160" relative="1" as="geometry">
            <mxPoint x="2920" y="370" as="sourcePoint" />
            <mxPoint x="3080" y="370" as="targetPoint" />
          </mxGeometry>
        </mxCell>
        <mxCell id="S9mcAk_hW2MHrrXe7dgP-18" value="" style="endArrow=block;endSize=16;endFill=0;html=1;exitX=0;exitY=0.5;exitDx=0;exitDy=0;entryX=1;entryY=0.75;entryDx=0;entryDy=0;" edge="1" parent="1" source="S9mcAk_hW2MHrrXe7dgP-12" target="S9mcAk_hW2MHrrXe7dgP-2">
          <mxGeometry width="160" relative="1" as="geometry">
            <mxPoint x="2920" y="370" as="sourcePoint" />
            <mxPoint x="3080" y="370" as="targetPoint" />
          </mxGeometry>
        </mxCell>
        <mxCell id="S9mcAk_hW2MHrrXe7dgP-19" value="" style="endArrow=block;endSize=16;endFill=0;html=1;exitX=0;exitY=0;exitDx=0;exitDy=0;entryX=1;entryY=1;entryDx=0;entryDy=0;" edge="1" parent="1" source="S9mcAk_hW2MHrrXe7dgP-11" target="S9mcAk_hW2MHrrXe7dgP-2">
          <mxGeometry width="160" relative="1" as="geometry">
            <mxPoint x="2920" y="370" as="sourcePoint" />
            <mxPoint x="3080" y="370" as="targetPoint" />
          </mxGeometry>
        </mxCell>
        <mxCell id="S9mcAk_hW2MHrrXe7dgP-20" value="" style="endArrow=block;endSize=16;endFill=0;html=1;exitX=0.5;exitY=0;exitDx=0;exitDy=0;entryX=0.5;entryY=1;entryDx=0;entryDy=0;" edge="1" parent="1" source="S9mcAk_hW2MHrrXe7dgP-13" target="S9mcAk_hW2MHrrXe7dgP-2">
          <mxGeometry width="160" relative="1" as="geometry">
            <mxPoint x="2920" y="530" as="sourcePoint" />
            <mxPoint x="3080" y="530" as="targetPoint" />
          </mxGeometry>
        </mxCell>
        <mxCell id="S9mcAk_hW2MHrrXe7dgP-21" value="" style="endArrow=block;endSize=16;endFill=0;html=1;exitX=1;exitY=0;exitDx=0;exitDy=0;entryX=0;entryY=1;entryDx=0;entryDy=0;" edge="1" parent="1" source="S9mcAk_hW2MHrrXe7dgP-10" target="S9mcAk_hW2MHrrXe7dgP-2">
          <mxGeometry width="160" relative="1" as="geometry">
            <mxPoint x="2880" y="530" as="sourcePoint" />
            <mxPoint x="3040" y="530" as="targetPoint" />
          </mxGeometry>
        </mxCell>
        <mxCell id="S9mcAk_hW2MHrrXe7dgP-22" value="" style="endArrow=block;endSize=16;endFill=0;html=1;exitX=1;exitY=0.5;exitDx=0;exitDy=0;entryX=0;entryY=0.75;entryDx=0;entryDy=0;" edge="1" parent="1" source="S9mcAk_hW2MHrrXe7dgP-8" target="S9mcAk_hW2MHrrXe7dgP-2">
          <mxGeometry width="160" relative="1" as="geometry">
            <mxPoint x="2880" y="530" as="sourcePoint" />
            <mxPoint x="3040" y="530" as="targetPoint" />
          </mxGeometry>
        </mxCell>
        <mxCell id="S9mcAk_hW2MHrrXe7dgP-23" value="" style="endArrow=block;endSize=16;endFill=0;html=1;exitX=1;exitY=0.5;exitDx=0;exitDy=0;entryX=0;entryY=0.25;entryDx=0;entryDy=0;" edge="1" parent="1" source="S9mcAk_hW2MHrrXe7dgP-7" target="S9mcAk_hW2MHrrXe7dgP-2">
          <mxGeometry width="160" relative="1" as="geometry">
            <mxPoint x="2880" y="530" as="sourcePoint" />
            <mxPoint x="3040" y="530" as="targetPoint" />
          </mxGeometry>
        </mxCell>
        <mxCell id="S9mcAk_hW2MHrrXe7dgP-24" value="" style="endArrow=block;endSize=16;endFill=0;html=1;exitX=1;exitY=1;exitDx=0;exitDy=0;entryX=0;entryY=0;entryDx=0;entryDy=0;" edge="1" parent="1" source="S9mcAk_hW2MHrrXe7dgP-5" target="S9mcAk_hW2MHrrXe7dgP-2">
          <mxGeometry width="160" relative="1" as="geometry">
            <mxPoint x="2880" y="440" as="sourcePoint" />
            <mxPoint x="3040" y="440" as="targetPoint" />
          </mxGeometry>
        </mxCell>
        <mxCell id="S9mcAk_hW2MHrrXe7dgP-25" value="" style="endArrow=open;endFill=1;endSize=12;html=1;" edge="1" parent="1" source="S9mcAk_hW2MHrrXe7dgP-1" target="S9mcAk_hW2MHrrXe7dgP-3">
          <mxGeometry width="160" relative="1" as="geometry">
            <mxPoint x="2295" y="347.5" as="sourcePoint" />
            <mxPoint x="2455" y="347.5" as="targetPoint" />
          </mxGeometry>
        </mxCell>
        <mxCell id="S9mcAk_hW2MHrrXe7dgP-26" value="" style="endArrow=open;endFill=1;endSize=12;html=1;exitX=1;exitY=0.5;exitDx=0;exitDy=0;entryX=0;entryY=0.5;entryDx=0;entryDy=0;" edge="1" parent="1" source="S9mcAk_hW2MHrrXe7dgP-1" target="S9mcAk_hW2MHrrXe7dgP-2">
          <mxGeometry width="160" relative="1" as="geometry">
            <mxPoint x="2590" y="450" as="sourcePoint" />
            <mxPoint x="2540" y="460" as="targetPoint" />
          </mxGeometry>
        </mxCell>
        <mxCell id="S9mcAk_hW2MHrrXe7dgP-27" value="Circuit Board Designer Class Diagram (Python)" style="rounded=0;whiteSpace=wrap;html=1;" vertex="1" parent="1">
          <mxGeometry x="2400" y="90" width="190" height="50" as="geometry" />
        </mxCell>
      </root>
    </mxGraphModel>
  </diagram>
</mxfile>
